<?xml version="1.0" encoding="UTF-8"?>
<!DOCTYPE svg PUBLIC "-//W3C//DTD SVG 1.1//EN" "http://www.w3.org/Graphics/SVG/1.1/DTD/svg11.dtd">
<svg xmlns="http://www.w3.org/2000/svg" version="1.1" width="1700px" height="1700px" style="shape-rendering:geometricPrecision; text-rendering:geometricPrecision; image-rendering:optimizeQuality; fill-rule:evenodd; clip-rule:evenodd" xmlns:xlink="http://www.w3.org/1999/xlink">
<g><path style="opacity:1" fill="#cb0000" d="M 1699.5,1085.5 C 1699.5,1093.17 1699.5,1100.83 1699.5,1108.5C 1694.57,1121.73 1688.74,1134.73 1682,1147.5C 1676.45,1156.05 1669.29,1162.88 1660.5,1168C 1643.87,1174.18 1626.54,1179.51 1608.5,1184C 1590.21,1191.6 1571.55,1198.1 1552.5,1203.5C 1551,1200.87 1550.33,1201.2 1550.5,1204.5C 1538.7,1205.47 1527.04,1207.3 1515.5,1210C 1507.86,1211.15 1500.19,1211.49 1492.5,1211C 1476.01,1207.64 1459.68,1203.64 1443.5,1199C 1424.12,1192.39 1404.62,1186.22 1385,1180.5C 1372.72,1182.53 1360.89,1186.03 1349.5,1191C 1313.06,1212.38 1274.73,1229.72 1234.5,1243C 1222.5,1246.33 1210.5,1249.67 1198.5,1253C 1166.94,1259.85 1135.27,1266.18 1103.5,1272C 1091.9,1274.03 1080.24,1274.7 1068.5,1274C 1051.54,1269.93 1034.88,1264.93 1018.5,1259C 994.592,1252.44 970.259,1249.44 945.5,1250C 933.985,1253.1 922.318,1255.44 910.5,1257C 900.025,1259.54 889.691,1262.54 879.5,1266C 852.374,1270.69 825.374,1276.03 798.5,1282C 759.731,1288.82 720.731,1293.82 681.5,1297C 606.332,1299.89 531.998,1293.23 458.5,1277C 434.333,1271.83 411.333,1263.5 389.5,1252C 382.833,1246.67 376.167,1241.33 369.5,1236C 357.567,1229.06 345.9,1221.73 334.5,1214C 321.607,1207.55 308.274,1202.22 294.5,1198C 273.104,1193.85 251.604,1193.35 230,1196.5C 223.149,1196.24 216.316,1195.74 209.5,1195C 186.198,1191.55 162.865,1188.21 139.5,1185C 124.181,1182.6 109.181,1178.94 94.5,1174C 88.2211,1171.53 82.2211,1168.53 76.5,1165C 68.9044,1156.69 63.4044,1148.19 60,1139.5C 52.6746,1116.41 49.1746,1092.74 49.5,1068.5C 49.67,1044.74 51.17,1021.08 54,997.5C 56.0422,987.331 58.7089,977.331 62,967.5C 73.5486,901.55 67.5486,837.217 44,774.5C 39.6511,765.802 35.3178,757.136 31,748.5C 28.7463,740.312 27.5796,731.979 27.5,723.5C 30.9672,715.228 35.4672,706.228 41,696.5C 54.0368,682.452 68.5368,670.286 84.5,660C 93.315,651.515 102.982,644.182 113.5,638C 127.762,624.615 141.929,611.115 156,597.5C 164.377,588.125 172.377,578.458 180,568.5C 182.724,562.995 185.057,557.328 187,551.5C 193.093,518.461 200.76,485.794 210,453.5C 218.226,435.608 231.392,422.774 249.5,415C 284.134,398.737 320.134,394.737 357.5,403C 387.662,409.208 417.662,416.041 447.5,423.5C 446.833,426.833 446.167,430.167 445.5,433.5C 471.548,431.462 497.548,428.962 523.5,426C 543.82,424.609 564.153,423.943 584.5,424C 589.932,424.921 595.265,426.255 600.5,428C 618.673,434.724 637.006,441.058 655.5,447C 665.858,449.441 676.358,450.607 687,450.5C 701.934,450.026 716.767,448.526 731.5,446C 768.029,438.561 804.695,431.894 841.5,426C 886.038,426.067 930.038,431.067 973.5,441C 1015.45,452.65 1057.12,465.317 1098.5,479C 1111.55,483.262 1124.88,486.262 1138.5,488C 1152.53,488.791 1166.53,488.457 1180.5,487C 1199.95,484.176 1219.28,480.842 1238.5,477C 1263.5,476.269 1288.5,475.936 1313.5,476C 1333.55,478.596 1353.22,482.929 1372.5,489C 1384.56,493.193 1395.56,499.193 1405.5,507C 1416.83,512.326 1427.49,518.659 1437.5,526C 1449.8,536.812 1462.47,547.145 1475.5,557C 1482.47,564.97 1489.8,572.636 1497.5,580C 1503.92,582.753 1510.59,584.753 1517.5,586C 1531.77,593.608 1544.94,602.775 1557,613.5C 1564.51,622.505 1570.51,632.505 1575,643.5C 1579.46,656.361 1583.46,669.361 1587,682.5C 1589.58,702.862 1592.24,723.196 1595,743.5C 1595.08,758.772 1597.08,773.772 1601,788.5C 1601.9,792.538 1603.57,796.205 1606,799.5C 1616.49,808.65 1625.49,818.984 1633,830.5C 1641.02,848.338 1643.69,867.004 1641,886.5C 1638.6,910.479 1636.43,934.479 1634.5,958.5C 1634.55,969.042 1636.05,979.375 1639,989.5C 1642.39,997.951 1646.06,1006.28 1650,1014.5C 1658.48,1028.32 1668.48,1040.98 1680,1052.5C 1686.17,1062.67 1692.33,1072.83 1698.5,1083C 1695.67,1084.91 1696,1085.74 1699.5,1085.5 Z"/></g>
<g><path style="opacity:1" fill="#fc0017" d="M 691.5,484.5 C 730.153,484.886 767.487,492.053 803.5,506C 862.388,530.934 916.721,563.267 966.5,603C 982.759,616.381 998.926,629.881 1015,643.5C 1015.67,644.167 1015.67,644.833 1015,645.5C 994.41,662.088 975.077,680.088 957,699.5C 952.333,705.5 947.667,711.5 943,717.5C 942.029,720.304 942.862,722.304 945.5,723.5C 968.667,695.167 994.667,669.667 1023.5,647C 1068.28,620.298 1115.94,600.631 1166.5,588C 1181.3,584.273 1196.3,581.773 1211.5,580.5C 1217.05,580.473 1222.38,579.806 1227.5,578.5C 1244.15,577.667 1260.82,577.334 1277.5,577.5C 1288.3,579.305 1299.3,580.638 1310.5,581.5C 1318.9,582.461 1327.23,583.795 1335.5,585.5C 1337.51,586.924 1339.85,587.59 1342.5,587.5C 1409.42,604.21 1462.58,640.876 1502,697.5C 1513.26,715.017 1522.09,733.684 1528.5,753.5C 1528.72,757.162 1529.72,760.495 1531.5,763.5C 1535.46,775.512 1538.12,787.845 1539.5,800.5C 1539.45,806.389 1540.12,812.056 1541.5,817.5C 1542.52,830.484 1542.69,843.484 1542,856.5C 1540.92,867.22 1539.42,877.887 1537.5,888.5C 1536.08,890.515 1535.41,892.848 1535.5,895.5C 1520.52,956.968 1489.52,1008.8 1442.5,1051C 1388.98,1097.09 1327.31,1126.59 1257.5,1139.5C 1247.74,1141.24 1238.08,1142.9 1228.5,1144.5C 1203.5,1145.75 1178.5,1145.75 1153.5,1144.5C 1148.75,1142.97 1143.75,1142.3 1138.5,1142.5C 1135.48,1142.3 1132.48,1141.96 1129.5,1141.5C 1126.16,1139.78 1122.49,1139.12 1118.5,1139.5C 1112.32,1138.45 1106.32,1137.12 1100.5,1135.5C 1096.5,1133.39 1092.16,1132.06 1087.5,1131.5C 1087.17,1131.5 1086.83,1131.5 1086.5,1131.5C 1083.5,1129.72 1080.16,1128.72 1076.5,1128.5C 1051.83,1120.66 1028.49,1109.83 1006.5,1096C 993.674,1086.75 980.674,1077.75 967.5,1069C 955.964,1058.46 944.797,1047.63 934,1036.5C 931.197,1037.11 930.197,1038.78 931,1041.5C 944.795,1057.8 960.295,1072.13 977.5,1084.5C 908.317,1133.19 831.984,1165.69 748.5,1182C 738.995,1183.33 729.661,1184.83 720.5,1186.5C 699.54,1188.38 678.54,1188.88 657.5,1188C 650.053,1174.96 645.053,1161.13 642.5,1146.5C 641.902,1138.69 641.569,1130.86 641.5,1123C 641.503,1116.13 642.17,1109.63 643.5,1103.5C 650.749,1103.32 657.749,1102.32 664.5,1100.5C 665.29,1099.21 666.29,1098.04 667.5,1097C 670.478,1096.3 673.478,1095.8 676.5,1095.5C 742.684,1082.5 806.684,1062.67 868.5,1036C 870.323,1031.15 868.656,1029.49 863.5,1031C 806.304,1055.23 747.304,1073.73 686.5,1086.5C 683.572,1086.57 680.905,1087.23 678.5,1088.5C 675.273,1088.68 672.273,1089.34 669.5,1090.5C 667.5,1090.5 665.5,1090.5 663.5,1090.5C 649.934,1058.14 637.934,1025.14 627.5,991.5C 627.59,988.848 626.924,986.515 625.5,984.5C 618.886,958.043 613.219,931.376 608.5,904.5C 608.556,899.269 607.889,894.269 606.5,889.5C 603.986,867.58 602.653,845.58 602.5,823.5C 713.394,816.84 824.06,819.507 934.5,831.5C 934.356,849.622 935.689,867.622 938.5,885.5C 938.41,888.152 939.076,890.485 940.5,892.5C 941.374,895.789 942.041,899.123 942.5,902.5C 942.723,906.162 943.723,909.495 945.5,912.5C 950.053,925.626 955.219,938.626 961,951.5C 964.172,954.388 966.339,953.722 967.5,949.5C 954.854,923.559 946.854,896.225 943.5,867.5C 942.864,856.178 942.531,844.844 942.5,833.5C 944.833,833.5 947.167,833.5 949.5,833.5C 956.883,833.673 964.217,834.34 971.5,835.5C 975.964,836.644 980.63,837.31 985.5,837.5C 992.523,837.969 999.523,838.636 1006.5,839.5C 1006.27,862.077 1009.27,884.077 1015.5,905.5C 1024.82,937.483 1040.82,965.483 1063.5,989.5C 1061.65,991.033 1059.81,992.7 1058,994.5C 1059.09,997.785 1061.26,1000.45 1064.5,1002.5C 1066.59,1000.4 1068.92,998.728 1071.5,997.5C 1092.13,1018.12 1115.8,1034.45 1142.5,1046.5C 1143.51,1047.4 1143.51,1048.06 1142.5,1048.5C 1098.52,1035.43 1060.35,1012.77 1028,980.5C 1014.88,966.266 1005.38,949.933 999.5,931.5C 999.829,928.772 999.163,926.438 997.5,924.5C 997.737,920.727 997.237,917.06 996,913.5C 994.267,911.398 992.267,911.065 990,912.5C 989.982,919.25 990.815,925.917 992.5,932.5C 992.345,935.716 993.345,938.383 995.5,940.5C 1000.93,954.688 1008.43,967.688 1018,979.5C 1045.95,1009.06 1078.78,1031.56 1116.5,1047C 1134.93,1054.78 1153.93,1060.62 1173.5,1064.5C 1192.05,1069.42 1211.05,1072.09 1230.5,1072.5C 1245.19,1073.7 1259.86,1073.37 1274.5,1071.5C 1314.37,1069.45 1352.04,1059.45 1387.5,1041.5C 1389.8,1043.98 1391.97,1046.64 1394,1049.5C 1396.83,1047.33 1399.67,1045.17 1402.5,1043C 1400.59,1040.6 1398.92,1038.1 1397.5,1035.5C 1450.28,1005.88 1486.11,962.209 1505,904.5C 1507.32,895.567 1509.15,886.567 1510.5,877.5C 1512.09,873.796 1512.92,869.796 1513,865.5C 1513.17,859.667 1513.33,853.833 1513.5,848C 1513.7,839.608 1513.04,831.441 1511.5,823.5C 1502.28,764.205 1473.94,716.372 1426.5,680C 1401.9,661.532 1374.9,647.532 1345.5,638C 1333.04,634.145 1320.37,631.145 1307.5,629C 1291.26,627.547 1275.26,625.381 1259.5,622.5C 1246.86,621.045 1234.03,620.379 1221,620.5C 1212.99,620.5 1205.16,620.834 1197.5,621.5C 1190.94,621.337 1184.61,622.004 1178.5,623.5C 1119.33,628.503 1069.17,652.17 1028,694.5C 1008.17,717.493 993.499,743.493 984,772.5C 983.333,774.833 983.333,777.167 984,779.5C 985.388,780.554 986.888,780.72 988.5,780C 1015.72,697.705 1072.05,648.872 1157.5,633.5C 1162.41,633.638 1167.08,632.972 1171.5,631.5C 1174.28,630.922 1176.95,630.255 1179.5,629.5C 1186.15,628.861 1192.81,628.527 1199.5,628.5C 1203.37,628.185 1207.04,628.518 1210.5,629.5C 1133.38,642.853 1074.21,682.52 1033,748.5C 1028.32,756.846 1024.49,765.512 1021.5,774.5C 1013.41,792.872 1008.74,812.205 1007.5,832.5C 1005.83,832.5 1004.17,832.5 1002.5,832.5C 997.75,830.969 992.75,830.302 987.5,830.5C 972.597,829.06 957.763,827.394 943,825.5C 943.246,806.176 946.746,787.509 953.5,769.5C 954.924,767.485 955.59,765.152 955.5,762.5C 955.592,758.929 953.926,757.762 950.5,759C 948.538,763.093 946.704,767.259 945,771.5C 939.68,788.749 936.514,806.416 935.5,824.5C 904.822,822.199 874.156,819.699 843.5,817C 818.168,815.713 792.835,814.547 767.5,813.5C 751.17,812.833 734.67,812.5 718,812.5C 695.644,812.28 673.477,812.946 651.5,814.5C 638.464,814.55 625.464,815.217 612.5,816.5C 609.167,816.5 605.833,816.5 602.5,816.5C 602.5,807.833 602.5,799.167 602.5,790.5C 602.675,772.545 604.341,754.878 607.5,737.5C 609.246,731.074 610.246,724.407 610.5,717.5C 612.035,706.763 614.035,696.096 616.5,685.5C 618.04,683.162 618.706,680.495 618.5,677.5C 619.919,668.485 622.252,659.818 625.5,651.5C 627.277,648.495 628.277,645.162 628.5,641.5C 631.354,631.437 634.52,621.437 638,611.5C 642.635,599.741 647.135,588.075 651.5,576.5C 665.526,576.68 679.526,577.346 693.5,578.5C 696.507,580.175 699.84,580.841 703.5,580.5C 719.661,582.638 735.661,585.638 751.5,589.5C 754.939,591.204 758.605,592.538 762.5,593.5C 792.135,603.483 821.468,614.316 850.5,626C 855.927,627.216 861.26,628.716 866.5,630.5C 870.826,630.022 871.493,628.189 868.5,625C 844.488,616.776 820.821,607.776 797.5,598C 767.743,586.471 737.076,578.304 705.5,573.5C 690.855,571.947 676.188,570.614 661.5,569.5C 661.347,559.432 662.014,549.432 663.5,539.5C 663.433,538.041 663.766,536.708 664.5,535.5C 666.277,532.495 667.277,529.162 667.5,525.5C 672.683,510.126 680.683,496.459 691.5,484.5 Z"/></g>
<g><path style="opacity:1" fill="#9f0312" d="M 667.5,525.5 C 667.277,529.162 666.277,532.495 664.5,535.5C 664.723,531.838 665.723,528.505 667.5,525.5 Z"/></g>
<g><path style="opacity:1" fill="#fd0017" d="M 553.5,561.5 C 559.274,562.946 565.274,563.612 571.5,563.5C 577.218,563.705 582.885,564.372 588.5,565.5C 586.78,568.202 585.113,570.868 583.5,573.5C 574.854,584.099 567.687,595.766 562,608.5C 555.585,623.488 550.085,638.822 545.5,654.5C 544.262,656.214 543.595,658.214 543.5,660.5C 540.406,673.063 537.739,685.729 535.5,698.5C 534.215,701.589 533.549,704.922 533.5,708.5C 529.937,733.365 527.937,758.365 527.5,783.5C 527.133,798.233 526.133,812.9 524.5,827.5C 506.013,830.5 487.68,834.334 469.5,839C 466.782,840.415 466.115,842.415 467.5,845C 472.215,845.158 476.881,844.658 481.5,843.5C 484.152,843.59 486.485,842.924 488.5,841.5C 500.03,838.547 511.697,836.214 523.5,834.5C 524.833,834.5 526.167,834.5 527.5,834.5C 527.19,837.713 527.523,840.713 528.5,843.5C 529.502,860.194 530.836,876.861 532.5,893.5C 532.198,897.79 532.864,901.79 534.5,905.5C 537.01,930.049 541.677,954.049 548.5,977.5C 550.552,988.987 553.219,1000.32 556.5,1011.5C 556.723,1015.16 557.723,1018.5 559.5,1021.5C 569.154,1051.46 581.154,1080.46 595.5,1108.5C 593.5,1109.17 591.5,1109.83 589.5,1110.5C 560.11,1114.34 530.776,1118.51 501.5,1123C 455.961,1128.1 410.294,1129.76 364.5,1128C 357.757,1127.36 351.091,1126.53 344.5,1125.5C 339.731,1124.11 334.731,1123.44 329.5,1123.5C 323.989,1122.78 318.656,1121.78 313.5,1120.5C 311.485,1119.08 309.152,1118.41 306.5,1118.5C 291.82,1115.16 277.487,1110.66 263.5,1105C 234.619,1084.12 214.119,1056.96 202,1023.5C 192.146,984.589 199.813,949.589 225,918.5C 232.197,910.969 239.697,903.802 247.5,897C 249.407,895.878 251.407,895.045 253.5,894.5C 258.165,893.943 262.498,892.61 266.5,890.5C 270.996,888.86 275.663,887.86 280.5,887.5C 285.414,887.638 290.081,886.972 294.5,885.5C 297.764,884.676 301.098,884.342 304.5,884.5C 309.75,884.698 314.75,884.031 319.5,882.5C 342.109,881.026 364.776,879.526 387.5,878C 430.922,867.598 449.089,840.431 442,796.5C 431.836,772.997 414.003,763.497 388.5,768C 385.405,768.714 382.405,769.714 379.5,771C 366.489,771.739 353.489,772.572 340.5,773.5C 316.507,774.243 292.507,774.577 268.5,774.5C 262.325,773.661 255.992,772.994 249.5,772.5C 227.397,767.034 208.564,756.034 193,739.5C 178.717,721.359 174.384,701.026 180,678.5C 189.848,645.961 209.014,620.461 237.5,602C 270.633,585.476 305.633,575.309 342.5,571.5C 349.736,571.235 356.736,570.235 363.5,568.5C 426.496,561.127 489.83,558.794 553.5,561.5 Z"/></g>
<g><path style="opacity:1" fill="#990311" d="M 663.5,539.5 C 662.014,549.432 661.347,559.432 661.5,569.5C 660.521,566.375 660.187,563.042 660.5,559.5C 660.236,552.516 661.236,545.849 663.5,539.5 Z"/></g>
<g><path style="opacity:1" fill="#383838" d="M 622.5,570.5 C 630.051,572.057 637.717,573.057 645.5,573.5C 630.858,608.816 619.025,645.149 610,682.5C 608.509,689.122 607.342,695.789 606.5,702.5C 585.949,696.147 564.949,693.814 543.5,695.5C 548.834,660.664 559.668,627.664 576,596.5C 579.68,589.796 583.847,583.462 588.5,577.5C 590.467,574.421 592.8,571.588 595.5,569C 604.478,569.406 613.478,569.906 622.5,570.5 Z"/></g>
<g><path style="opacity:1" fill="#9b0312" d="M 693.5,578.5 C 696.833,578.833 700.167,579.167 703.5,579.5C 703.5,579.833 703.5,580.167 703.5,580.5C 699.84,580.841 696.507,580.175 693.5,578.5 Z"/></g>
<g><path style="opacity:1" fill="#0b0706" d="M 711.5,478.5 C 710.847,479.807 710.18,481.14 709.5,482.5C 703.346,483.167 697.346,483.833 691.5,484.5C 680.683,496.459 672.683,510.126 667.5,525.5C 665.723,528.505 664.723,531.838 664.5,535.5C 663.766,536.708 663.433,538.041 663.5,539.5C 661.236,545.849 660.236,552.516 660.5,559.5C 659.698,560.952 659.198,562.618 659,564.5C 657.938,566.208 656.771,566.874 655.5,566.5C 656.326,567.451 656.492,568.451 656,569.5C 654.804,567.714 653.304,566.381 651.5,565.5C 652.343,563.827 653.676,562.66 655.5,562C 655.413,559.107 655.08,556.273 654.5,553.5C 654.977,552.522 655.643,551.689 656.5,551C 655.366,549.984 655.699,549.317 657.5,549C 656.572,548.612 655.905,547.945 655.5,547C 656.424,545.85 656.424,544.85 655.5,544C 657.014,542.561 657.347,541.061 656.5,539.5C 657.041,537.465 657.708,535.465 658.5,533.5C 659.396,534.506 660.062,534.506 660.5,533.5C 657.956,532.063 657.956,530.563 660.5,529C 660.167,528.667 659.833,528.333 659.5,528C 660.915,523.929 662.915,520.263 665.5,517C 664.549,516.282 664.383,515.449 665,514.5C 666.281,514.619 667.448,514.119 668.5,513C 668.623,511.211 668.623,509.378 668.5,507.5C 671.071,503.511 673.071,499.678 674.5,496C 677.037,493.094 679.204,489.927 681,486.5C 681.654,487.696 682.154,487.696 682.5,486.5C 681.672,485.585 680.672,484.919 679.5,484.5C 677.2,484.868 675.033,484.868 673,484.5C 672.667,485.167 672.333,485.833 672,486.5C 670.732,486.384 669.398,486.051 668,485.5C 665.91,486.794 663.91,487.794 662,488.5C 661.586,488.043 661.086,487.709 660.5,487.5C 656.875,488.13 653.375,489.13 650,490.5C 649.333,489.167 648.333,488.167 647,487.5C 646.689,488.742 647.189,489.742 648.5,490.5C 642.628,491.518 637.128,493.184 632,495.5C 631.586,495.043 631.086,494.709 630.5,494.5C 628.538,496.998 626.205,497.998 623.5,497.5C 622.064,499.822 620.23,500.489 618,499.5C 617.683,501.301 617.016,501.634 616,500.5C 610.333,504.167 604.667,507.833 599,511.5C 597.984,510.366 597.317,510.699 597,512.5C 596.667,511.833 596.333,511.167 596,510.5C 595.71,512.044 595.044,513.377 594,514.5C 593.667,514.167 593.333,513.833 593,513.5C 590.758,514.937 588.425,516.937 586,519.5C 585.667,519.167 585.333,518.833 585,518.5C 584.667,519.5 584.333,520.5 584,521.5C 581.347,523.155 579.014,525.155 577,527.5C 576.586,527.043 576.086,526.709 575.5,526.5C 574.289,527.274 574.289,528.107 575.5,529C 572.384,530.449 569.884,532.616 568,535.5C 567.586,535.043 567.086,534.709 566.5,534.5C 565.289,535.274 565.289,536.107 566.5,537C 565.241,537.923 563.908,538.757 562.5,539.5C 562.709,540.086 563.043,540.586 563.5,541C 560.382,544.063 557.049,546.896 553.5,549.5C 551.943,552.273 552.443,554.607 555,556.5C 556.751,555.826 558.417,555.493 560,555.5C 560.626,557.991 561.459,557.991 562.5,555.5C 563.478,555.977 564.311,556.643 565,557.5C 567.044,556.994 569.044,556.661 571,556.5C 572.261,556.759 573.261,557.426 574,558.5C 574.875,556.487 576.209,556.487 578,558.5C 580.117,557.657 582.45,557.323 585,557.5C 586.724,560.73 588.724,561.064 591,558.5C 591.626,560.991 592.459,560.991 593.5,558.5C 594.425,559.641 595.259,559.641 596,558.5C 597,559.5 598,560.5 599,561.5C 599.308,560.692 599.808,560.025 600.5,559.5C 601.72,560.711 602.887,560.711 604,559.5C 604.875,561.513 606.209,561.513 608,559.5C 608.333,560.167 608.667,560.833 609,561.5C 611.811,561.614 614.478,561.281 617,560.5C 620.349,561.668 623.515,562.334 626.5,562.5C 628.026,564.13 630.026,564.963 632.5,565C 630.444,565.311 628.444,565.811 626.5,566.5C 625.914,566.291 625.414,565.957 625,565.5C 624.665,567.503 623.832,569.17 622.5,570.5C 613.478,569.906 604.478,569.406 595.5,569C 592.8,571.588 590.467,574.421 588.5,577.5C 584.63,579.314 582.963,577.981 583.5,573.5C 585.113,570.868 586.78,568.202 588.5,565.5C 582.885,564.372 577.218,563.705 571.5,563.5C 565.712,562.19 559.712,561.523 553.5,561.5C 489.83,558.794 426.496,561.127 363.5,568.5C 356.251,568.678 349.251,569.678 342.5,571.5C 305.633,575.309 270.633,585.476 237.5,602C 209.014,620.461 189.848,645.961 180,678.5C 174.384,701.026 178.717,721.359 193,739.5C 208.564,756.034 227.397,767.034 249.5,772.5C 250.263,773.268 251.263,773.768 252.5,774C 255.817,774.498 259.15,774.665 262.5,774.5C 272.494,775.167 282.661,775.5 293,775.5C 309.026,775.648 324.86,774.982 340.5,773.5C 353.489,772.572 366.489,771.739 379.5,771C 382.405,769.714 385.405,768.714 388.5,768C 414.003,763.497 431.836,772.997 442,796.5C 449.089,840.431 430.922,867.598 387.5,878C 364.776,879.526 342.109,881.026 319.5,882.5C 314.269,882.444 309.269,883.111 304.5,884.5C 301.098,884.342 297.764,884.676 294.5,885.5C 289.586,885.362 284.919,886.028 280.5,887.5C 275.663,887.86 270.996,888.86 266.5,890.5C 261.835,891.057 257.502,892.39 253.5,894.5C 251.407,895.045 249.407,895.878 247.5,897C 239.697,903.802 232.197,910.969 225,918.5C 199.813,949.589 192.146,984.589 202,1023.5C 214.119,1056.96 234.619,1084.12 263.5,1105C 277.487,1110.66 291.82,1115.16 306.5,1118.5C 308.515,1119.92 310.848,1120.59 313.5,1120.5C 318.656,1121.78 323.989,1122.78 329.5,1123.5C 334.25,1125.03 339.25,1125.7 344.5,1125.5C 351.091,1126.53 357.757,1127.36 364.5,1128C 410.294,1129.76 455.961,1128.1 501.5,1123C 530.776,1118.51 560.11,1114.34 589.5,1110.5C 591.924,1110.81 594.257,1110.47 596.5,1109.5C 596.376,1108.89 596.043,1108.56 595.5,1108.5C 581.154,1080.46 569.154,1051.46 559.5,1021.5C 559.277,1017.84 558.277,1014.5 556.5,1011.5C 553.219,1000.32 550.552,988.987 548.5,977.5C 548.785,975.813 549.452,973.813 550.5,971.5C 551.962,972.471 553.295,972.138 554.5,970.5C 555.192,971.025 555.692,971.692 556,972.5C 557.701,970.59 559.867,969.423 562.5,969C 560.618,968.802 558.952,968.302 557.5,967.5C 559.167,967.5 560.833,967.5 562.5,967.5C 567.652,967.222 572.652,966.889 577.5,966.5C 577.389,968.109 577.722,969.775 578.5,971.5C 570.597,973.157 562.597,974.157 554.5,974.5C 564.397,1018.68 579.397,1061.01 599.5,1101.5C 600.167,1101.83 600.833,1102.17 601.5,1102.5C 620.161,1099.74 638.827,1097.07 657.5,1094.5C 658.404,1093.79 658.737,1092.79 658.5,1091.5C 660.216,1091.37 661.883,1091.04 663.5,1090.5C 665.5,1090.5 667.5,1090.5 669.5,1090.5C 672.92,1090.48 676.254,1090.32 679.5,1090C 678.242,1091.74 677.242,1093.57 676.5,1095.5C 673.478,1095.8 670.478,1096.3 667.5,1097C 666.29,1098.04 665.29,1099.21 664.5,1100.5C 657.251,1100.68 650.251,1101.68 643.5,1103.5C 642.17,1109.63 641.503,1116.13 641.5,1123C 641.569,1130.86 641.902,1138.69 642.5,1146.5C 645.053,1161.13 650.053,1174.96 657.5,1188C 678.54,1188.88 699.54,1188.38 720.5,1186.5C 725.186,1186.16 729.853,1186 734.5,1186C 735.701,1186.9 736.535,1188.07 737,1189.5C 738.333,1188.83 739.667,1188.17 741,1187.5C 741.464,1188.09 741.631,1188.76 741.5,1189.5C 699.047,1197.65 656.38,1198.15 613.5,1191C 569.471,1183.99 532.805,1163.99 503.5,1131C 469.73,1133.47 435.896,1134.97 402,1135.5C 352.31,1137.19 304.476,1128.69 258.5,1110C 232.698,1090.88 213.198,1066.72 200,1037.5C 180.732,978.305 195.565,929.471 244.5,891C 261.445,883.876 279.112,879.543 297.5,878C 328.117,874.925 358.784,872.591 389.5,871C 422.706,862.147 438.539,840.647 437,806.5C 429.635,778.062 411.802,768.229 383.5,777C 341.241,781.387 298.907,782.72 256.5,781C 231.389,776.029 209.556,764.862 191,747.5C 173.46,728.014 167.46,705.347 173,679.5C 182.152,646.704 200.319,620.204 227.5,600C 258.444,583.019 291.444,572.019 326.5,567C 366.901,560.357 407.568,556.357 448.5,555C 479.16,554.022 509.826,553.356 540.5,553C 585.022,499.743 642.022,474.91 711.5,478.5 Z"/></g>
<g><path style="opacity:1" fill="#aa0312" d="M 363.5,568.5 C 356.736,570.235 349.736,571.235 342.5,571.5C 349.251,569.678 356.251,568.678 363.5,568.5 Z"/></g>
<g><path style="opacity:1" fill="#64050e" d="M 553.5,561.5 C 559.712,561.523 565.712,562.19 571.5,563.5C 565.274,563.612 559.274,562.946 553.5,561.5 Z"/></g>
<g><path style="opacity:1" fill="#010101" d="M 651.5,565.5 C 649.365,565.335 647.032,564.668 644.5,563.5C 642.292,564.399 640.126,564.065 638,562.5C 637.692,563.308 637.192,563.975 636.5,564.5C 636.511,563.559 636.011,562.892 635,562.5C 632.164,562.613 629.33,562.613 626.5,562.5C 623.515,562.334 620.349,561.668 617,560.5C 614.478,561.281 611.811,561.614 609,561.5C 608.667,560.833 608.333,560.167 608,559.5C 606.209,561.513 604.875,561.513 604,559.5C 602.887,560.711 601.72,560.711 600.5,559.5C 599.808,560.025 599.308,560.692 599,561.5C 598,560.5 597,559.5 596,558.5C 595.259,559.641 594.425,559.641 593.5,558.5C 592.459,560.991 591.626,560.991 591,558.5C 588.724,561.064 586.724,560.73 585,557.5C 582.45,557.323 580.117,557.657 578,558.5C 576.209,556.487 574.875,556.487 574,558.5C 573.261,557.426 572.261,556.759 571,556.5C 569.044,556.661 567.044,556.994 565,557.5C 564.311,556.643 563.478,555.977 562.5,555.5C 561.459,557.991 560.626,557.991 560,555.5C 558.417,555.493 556.751,555.826 555,556.5C 552.443,554.607 551.943,552.273 553.5,549.5C 557.049,546.896 560.382,544.063 563.5,541C 563.043,540.586 562.709,540.086 562.5,539.5C 563.908,538.757 565.241,537.923 566.5,537C 565.289,536.107 565.289,535.274 566.5,534.5C 567.086,534.709 567.586,535.043 568,535.5C 569.884,532.616 572.384,530.449 575.5,529C 574.289,528.107 574.289,527.274 575.5,526.5C 576.086,526.709 576.586,527.043 577,527.5C 579.014,525.155 581.347,523.155 584,521.5C 584.333,520.5 584.667,519.5 585,518.5C 585.333,518.833 585.667,519.167 586,519.5C 588.425,516.937 590.758,514.937 593,513.5C 593.333,513.833 593.667,514.167 594,514.5C 595.044,513.377 595.71,512.044 596,510.5C 596.333,511.167 596.667,511.833 597,512.5C 597.317,510.699 597.984,510.366 599,511.5C 604.667,507.833 610.333,504.167 616,500.5C 617.016,501.634 617.683,501.301 618,499.5C 620.23,500.489 622.064,499.822 623.5,497.5C 626.205,497.998 628.538,496.998 630.5,494.5C 631.086,494.709 631.586,495.043 632,495.5C 637.128,493.184 642.628,491.518 648.5,490.5C 647.189,489.742 646.689,488.742 647,487.5C 648.333,488.167 649.333,489.167 650,490.5C 653.375,489.13 656.875,488.13 660.5,487.5C 661.086,487.709 661.586,488.043 662,488.5C 663.91,487.794 665.91,486.794 668,485.5C 669.398,486.051 670.732,486.384 672,486.5C 672.333,485.833 672.667,485.167 673,484.5C 675.033,484.868 677.2,484.868 679.5,484.5C 680.672,484.919 681.672,485.585 682.5,486.5C 682.154,487.696 681.654,487.696 681,486.5C 679.204,489.927 677.037,493.094 674.5,496C 673.071,499.678 671.071,503.511 668.5,507.5C 668.623,509.378 668.623,511.211 668.5,513C 667.448,514.119 666.281,514.619 665,514.5C 664.383,515.449 664.549,516.282 665.5,517C 662.915,520.263 660.915,523.929 659.5,528C 659.833,528.333 660.167,528.667 660.5,529C 657.956,530.563 657.956,532.063 660.5,533.5C 660.062,534.506 659.396,534.506 658.5,533.5C 657.708,535.465 657.041,537.465 656.5,539.5C 657.347,541.061 657.014,542.561 655.5,544C 656.424,544.85 656.424,545.85 655.5,547C 655.905,547.945 656.572,548.612 657.5,549C 655.699,549.317 655.366,549.984 656.5,551C 655.643,551.689 654.977,552.522 654.5,553.5C 655.08,556.273 655.413,559.107 655.5,562C 653.676,562.66 652.343,563.827 651.5,565.5 Z"/></g>
<g><path style="opacity:1" fill="#3d0d0b" d="M 762.5,593.5 C 758.605,592.538 754.939,591.204 751.5,589.5C 752.822,589.67 753.989,589.337 755,588.5C 757.544,590.267 760.044,591.934 762.5,593.5 Z"/></g>
<g><path style="opacity:1" fill="#140806" d="M 705.5,573.5 C 737.076,578.304 767.743,586.471 797.5,598C 820.821,607.776 844.488,616.776 868.5,625C 871.493,628.189 870.826,630.022 866.5,630.5C 861.26,628.716 855.927,627.216 850.5,626C 821.468,614.316 792.135,603.483 762.5,593.5C 760.044,591.934 757.544,590.267 755,588.5C 753.989,589.337 752.822,589.67 751.5,589.5C 735.661,585.638 719.661,582.638 703.5,580.5C 703.5,580.167 703.5,579.833 703.5,579.5C 705.429,579.769 707.095,579.269 708.5,578C 706.137,577.411 705.137,575.911 705.5,573.5 Z"/></g>
<g><path style="opacity:1" fill="#0e0706" d="M 711.5,478.5 C 747.974,480.868 782.974,489.368 816.5,504C 863.214,524.509 906.88,549.842 947.5,580C 972.913,599.409 997.746,619.576 1022,640.5C 1094.67,595.944 1173.67,572.61 1259,570.5C 1334.23,569.686 1401.07,592.52 1459.5,639C 1518.9,692.672 1548.9,759.839 1549.5,840.5C 1545.21,924.957 1512.21,995.79 1450.5,1053C 1368.12,1124.35 1272.12,1157.35 1162.5,1152C 1097.04,1147.63 1037.54,1126.79 984,1089.5C 910.81,1140.83 829.977,1174.16 741.5,1189.5C 741.631,1188.76 741.464,1188.09 741,1187.5C 739.667,1188.17 738.333,1188.83 737,1189.5C 736.535,1188.07 735.701,1186.9 734.5,1186C 729.853,1186 725.186,1186.16 720.5,1186.5C 729.661,1184.83 738.995,1183.33 748.5,1182C 831.984,1165.69 908.317,1133.19 977.5,1084.5C 960.295,1072.13 944.795,1057.8 931,1041.5C 930.197,1038.78 931.197,1037.11 934,1036.5C 944.797,1047.63 955.964,1058.46 967.5,1069C 980.674,1077.75 993.674,1086.75 1006.5,1096C 1028.49,1109.83 1051.83,1120.66 1076.5,1128.5C 1079.5,1130.28 1082.84,1131.28 1086.5,1131.5C 1086.83,1131.5 1087.17,1131.5 1087.5,1131.5C 1091.5,1133.61 1095.84,1134.94 1100.5,1135.5C 1106.32,1137.12 1112.32,1138.45 1118.5,1139.5C 1121.97,1140.52 1125.64,1141.19 1129.5,1141.5C 1132.48,1141.96 1135.48,1142.3 1138.5,1142.5C 1143.27,1143.89 1148.27,1144.56 1153.5,1144.5C 1178.5,1145.75 1203.5,1145.75 1228.5,1144.5C 1231.87,1144.54 1235.2,1144.21 1238.5,1143.5C 1240.37,1143.39 1241.87,1144.06 1243,1145.5C 1243.5,1143.67 1244.67,1142.5 1246.5,1142C 1250.47,1141.89 1254.13,1141.06 1257.5,1139.5C 1327.31,1126.59 1388.98,1097.09 1442.5,1051C 1489.52,1008.8 1520.52,956.968 1535.5,895.5C 1536.92,893.485 1537.59,891.152 1537.5,888.5C 1539.42,877.887 1540.92,867.22 1542,856.5C 1542.69,843.484 1542.52,830.484 1541.5,817.5C 1541.68,811.596 1541.01,805.929 1539.5,800.5C 1538.12,787.845 1535.46,775.512 1531.5,763.5C 1531.28,759.838 1530.28,756.505 1528.5,753.5C 1522.09,733.684 1513.26,715.017 1502,697.5C 1462.58,640.876 1409.42,604.21 1342.5,587.5C 1340.49,586.076 1338.15,585.41 1335.5,585.5C 1327.23,583.795 1318.9,582.461 1310.5,581.5C 1299.77,579.058 1288.77,577.724 1277.5,577.5C 1260.82,577.334 1244.15,577.667 1227.5,578.5C 1221.93,578.376 1216.6,579.043 1211.5,580.5C 1196.3,581.773 1181.3,584.273 1166.5,588C 1115.94,600.631 1068.28,620.298 1023.5,647C 994.667,669.667 968.667,695.167 945.5,723.5C 942.862,722.304 942.029,720.304 943,717.5C 947.667,711.5 952.333,705.5 957,699.5C 975.077,680.088 994.41,662.088 1015,645.5C 1015.67,644.833 1015.67,644.167 1015,643.5C 998.926,629.881 982.759,616.381 966.5,603C 916.721,563.267 862.388,530.934 803.5,506C 767.487,492.053 730.153,484.886 691.5,484.5C 697.346,483.833 703.346,483.167 709.5,482.5C 710.18,481.14 710.847,479.807 711.5,478.5 Z"/></g>
<g><path style="opacity:1" fill="#54080d" d="M 1335.5,585.5 C 1338.15,585.41 1340.49,586.076 1342.5,587.5C 1339.85,587.59 1337.51,586.924 1335.5,585.5 Z"/></g>
<g><path style="opacity:1" fill="#a00412" d="M 1277.5,577.5 C 1288.77,577.724 1299.77,579.058 1310.5,581.5C 1299.3,580.638 1288.3,579.305 1277.5,577.5 Z"/></g>
<g><path style="opacity:1" fill="#970311" d="M 1227.5,578.5 C 1222.38,579.806 1217.05,580.473 1211.5,580.5C 1216.6,579.043 1221.93,578.376 1227.5,578.5 Z"/></g>
<g><path style="opacity:1" fill="#ad0212" d="M 1197.5,621.5 C 1205.16,620.834 1212.99,620.5 1221,620.5C 1234.03,620.379 1246.86,621.045 1259.5,622.5C 1239.51,621.834 1219.51,621.5 1199.5,621.5C 1198.83,621.5 1198.17,621.5 1197.5,621.5 Z"/></g>
<g><path style="opacity:1" fill="#62060e" d="M 1197.5,621.5 C 1198.17,621.5 1198.83,621.5 1199.5,621.5C 1192.7,622.755 1185.7,623.422 1178.5,623.5C 1184.61,622.004 1190.94,621.337 1197.5,621.5 Z"/></g>
<g><path style="opacity:1" fill="#020101" d="M 1199.5,621.5 C 1219.51,621.5 1239.51,621.834 1259.5,622.5C 1275.26,625.381 1291.26,627.547 1307.5,629C 1320.37,631.145 1333.04,634.145 1345.5,638C 1374.9,647.532 1401.9,661.532 1426.5,680C 1473.94,716.372 1502.28,764.205 1511.5,823.5C 1513.04,841.541 1512.71,859.541 1510.5,877.5C 1509.15,886.567 1507.32,895.567 1505,904.5C 1486.11,962.209 1450.28,1005.88 1397.5,1035.5C 1346.63,970.125 1296.3,904.292 1246.5,838C 1300.31,788.856 1354.15,739.689 1408,690.5C 1406.91,687.215 1404.74,684.548 1401.5,682.5C 1347.5,731.5 1293.5,780.5 1239.5,829.5C 1199.86,777.358 1160.02,725.358 1120,673.5C 1117.17,675.667 1114.33,677.833 1111.5,680C 1151.5,732.333 1191.5,784.667 1231.5,837C 1175.33,887.671 1119.33,938.504 1063.5,989.5C 1040.82,965.483 1024.82,937.483 1015.5,905.5C 1015.63,903.91 1016.29,902.577 1017.5,901.5C 1019.62,902.571 1020.62,901.737 1020.5,899C 1020.39,897.105 1019.72,895.438 1018.5,894C 1018.5,891.333 1018.5,888.667 1018.5,886C 1016.99,884.561 1016.65,883.061 1017.5,881.5C 1016.9,880.205 1016.4,878.872 1016,877.5C 1015.35,878.696 1014.85,878.696 1014.5,877.5C 1016.28,876.685 1016.94,875.518 1016.5,874C 1015.83,873.667 1015.17,873.333 1014.5,873C 1015.14,867.881 1015.14,861.714 1014.5,854.5C 1012.15,852.878 1012.15,851.378 1014.5,850C 1013.58,846.642 1013.25,842.975 1013.5,839C 1014.17,837.333 1014.83,835.667 1015.5,834C 1014.97,831.584 1014.63,829.084 1014.5,826.5C 1014.98,825.522 1015.64,824.689 1016.5,824C 1016.94,822.482 1016.28,821.315 1014.5,820.5C 1014.85,819.304 1015.35,819.304 1016,820.5C 1016.28,816.512 1017.11,812.679 1018.5,809C 1017.69,808.692 1017.03,808.192 1016.5,807.5C 1017.17,807.167 1017.83,806.833 1018.5,806.5C 1017.28,805.197 1017.62,804.197 1019.5,803.5C 1019.29,802.914 1018.96,802.414 1018.5,802C 1020.39,798.818 1021.72,795.318 1022.5,791.5C 1022.27,789.603 1021.27,788.27 1019.5,787.5C 1020.64,786.575 1020.64,785.741 1019.5,785C 1021.13,785.195 1022.79,785.195 1024.5,785C 1025.17,783.333 1025.83,781.667 1026.5,780C 1024.41,778.412 1022.74,776.578 1021.5,774.5C 1024.49,765.512 1028.32,756.846 1033,748.5C 1074.21,682.52 1133.38,642.853 1210.5,629.5C 1212.41,628.815 1214.41,628.315 1216.5,628C 1210.65,627.182 1204.98,627.348 1199.5,628.5C 1192.81,628.527 1186.15,628.861 1179.5,629.5C 1177.08,629.708 1174.75,629.374 1172.5,628.5C 1169.86,631.036 1167.53,630.703 1165.5,627.5C 1167.87,625.608 1170.37,625.275 1173,626.5C 1174.65,625.047 1176.48,624.047 1178.5,623.5C 1185.7,623.422 1192.7,622.755 1199.5,621.5 Z"/></g>
<g><path style="opacity:1" fill="#61040d" d="M 1199.5,628.5 C 1204.98,627.348 1210.65,627.182 1216.5,628C 1214.41,628.315 1212.41,628.815 1210.5,629.5C 1207.04,628.518 1203.37,628.185 1199.5,628.5 Z"/></g>
<g><path style="opacity:1" fill="#bc0213" d="M 1171.5,631.5 C 1167.08,632.972 1162.41,633.638 1157.5,633.5C 1161.9,631.896 1166.57,631.229 1171.5,631.5 Z"/></g>
<g><path style="opacity:1" fill="#a20312" d="M 628.5,641.5 C 628.277,645.162 627.277,648.495 625.5,651.5C 625.723,647.838 626.723,644.505 628.5,641.5 Z"/></g>
<g><path style="opacity:1" fill="#6d050f" d="M 545.5,654.5 C 545.741,656.898 545.074,658.898 543.5,660.5C 543.595,658.214 544.262,656.214 545.5,654.5 Z"/></g>
<g><path style="opacity:1" fill="#140806" d="M 1178.5,623.5 C 1176.48,624.047 1174.65,625.047 1173,626.5C 1170.37,625.275 1167.87,625.608 1165.5,627.5C 1167.53,630.703 1169.86,631.036 1172.5,628.5C 1174.75,629.374 1177.08,629.708 1179.5,629.5C 1176.95,630.255 1174.28,630.922 1171.5,631.5C 1166.57,631.229 1161.9,631.896 1157.5,633.5C 1072.05,648.872 1015.72,697.705 988.5,780C 986.888,780.72 985.388,780.554 984,779.5C 983.333,777.167 983.333,774.833 984,772.5C 993.499,743.493 1008.17,717.493 1028,694.5C 1069.17,652.17 1119.33,628.503 1178.5,623.5 Z"/></g>
<g><path style="opacity:1" fill="#f4c799" d="M 1397.5,1035.5 C 1398.92,1038.1 1400.59,1040.6 1402.5,1043C 1399.67,1045.17 1396.83,1047.33 1394,1049.5C 1391.97,1046.64 1389.8,1043.98 1387.5,1041.5C 1337.88,976.043 1288.05,910.71 1238,845.5C 1182,895.664 1126.5,946.33 1071.5,997.5C 1068.92,998.728 1066.59,1000.4 1064.5,1002.5C 1061.26,1000.45 1059.09,997.785 1058,994.5C 1059.81,992.7 1061.65,991.033 1063.5,989.5C 1119.33,938.504 1175.33,887.671 1231.5,837C 1191.5,784.667 1151.5,732.333 1111.5,680C 1114.33,677.833 1117.17,675.667 1120,673.5C 1160.02,725.358 1199.86,777.358 1239.5,829.5C 1293.5,780.5 1347.5,731.5 1401.5,682.5C 1404.74,684.548 1406.91,687.215 1408,690.5C 1354.15,739.689 1300.31,788.856 1246.5,838C 1296.3,904.292 1346.63,970.125 1397.5,1035.5 Z"/></g>
<g><path style="opacity:1" fill="#100807" d="M 660.5,559.5 C 660.187,563.042 660.521,566.375 661.5,569.5C 676.188,570.614 690.855,571.947 705.5,573.5C 705.137,575.911 706.137,577.411 708.5,578C 707.095,579.269 705.429,579.769 703.5,579.5C 700.167,579.167 696.833,578.833 693.5,578.5C 679.526,577.346 665.526,576.68 651.5,576.5C 647.135,588.075 642.635,599.741 638,611.5C 634.52,621.437 631.354,631.437 628.5,641.5C 626.723,644.505 625.723,647.838 625.5,651.5C 622.252,659.818 619.919,668.485 618.5,677.5C 617.232,679.905 616.565,682.572 616.5,685.5C 614.035,696.096 612.035,706.763 610.5,717.5C 608.439,723.879 607.439,730.546 607.5,737.5C 604.341,754.878 602.675,772.545 602.5,790.5C 601.507,799.318 601.173,808.318 601.5,817.5C 605.371,817.815 609.038,817.482 612.5,816.5C 625.464,815.217 638.464,814.55 651.5,814.5C 690.161,813.693 728.828,813.359 767.5,813.5C 792.835,814.547 818.168,815.713 843.5,817C 874.156,819.699 904.822,822.199 935.5,824.5C 936.514,806.416 939.68,788.749 945,771.5C 946.704,767.259 948.538,763.093 950.5,759C 953.926,757.762 955.592,758.929 955.5,762.5C 954.076,764.515 953.41,766.848 953.5,769.5C 946.746,787.509 943.246,806.176 943,825.5C 957.763,827.394 972.597,829.06 987.5,830.5C 992.269,831.889 997.269,832.556 1002.5,832.5C 1004.17,832.5 1005.83,832.5 1007.5,832.5C 1008.74,812.205 1013.41,792.872 1021.5,774.5C 1022.74,776.578 1024.41,778.412 1026.5,780C 1025.83,781.667 1025.17,783.333 1024.5,785C 1022.79,785.195 1021.13,785.195 1019.5,785C 1020.64,785.741 1020.64,786.575 1019.5,787.5C 1021.27,788.27 1022.27,789.603 1022.5,791.5C 1021.72,795.318 1020.39,798.818 1018.5,802C 1018.96,802.414 1019.29,802.914 1019.5,803.5C 1017.62,804.197 1017.28,805.197 1018.5,806.5C 1017.83,806.833 1017.17,807.167 1016.5,807.5C 1017.03,808.192 1017.69,808.692 1018.5,809C 1017.11,812.679 1016.28,816.512 1016,820.5C 1015.35,819.304 1014.85,819.304 1014.5,820.5C 1016.28,821.315 1016.94,822.482 1016.5,824C 1015.64,824.689 1014.98,825.522 1014.5,826.5C 1014.63,829.084 1014.97,831.584 1015.5,834C 1014.83,835.667 1014.17,837.333 1013.5,839C 1013.25,842.975 1013.58,846.642 1014.5,850C 1012.15,851.378 1012.15,852.878 1014.5,854.5C 1015.14,861.714 1015.14,867.881 1014.5,873C 1015.17,873.333 1015.83,873.667 1016.5,874C 1016.94,875.518 1016.28,876.685 1014.5,877.5C 1014.85,878.696 1015.35,878.696 1016,877.5C 1016.4,878.872 1016.9,880.205 1017.5,881.5C 1016.65,883.061 1016.99,884.561 1018.5,886C 1018.5,888.667 1018.5,891.333 1018.5,894C 1019.72,895.438 1020.39,897.105 1020.5,899C 1020.62,901.737 1019.62,902.571 1017.5,901.5C 1016.29,902.577 1015.63,903.91 1015.5,905.5C 1009.27,884.077 1006.27,862.077 1006.5,839.5C 999.523,838.636 992.523,837.969 985.5,837.5C 981.1,835.896 976.434,835.229 971.5,835.5C 964.217,834.34 956.883,833.673 949.5,833.5C 947.052,832.527 944.385,832.194 941.5,832.5C 941.145,844.378 941.812,856.045 943.5,867.5C 946.854,896.225 954.854,923.559 967.5,949.5C 966.339,953.722 964.172,954.388 961,951.5C 955.219,938.626 950.053,925.626 945.5,912.5C 945.277,908.838 944.277,905.505 942.5,902.5C 942.041,899.123 941.374,895.789 940.5,892.5C 940.59,889.848 939.924,887.515 938.5,885.5C 935.689,867.622 934.356,849.622 934.5,831.5C 824.06,819.507 713.394,816.84 602.5,823.5C 602.653,845.58 603.986,867.58 606.5,889.5C 606.444,894.731 607.111,899.731 608.5,904.5C 613.219,931.376 618.886,958.043 625.5,984.5C 625.41,987.152 626.076,989.485 627.5,991.5C 637.934,1025.14 649.934,1058.14 663.5,1090.5C 661.883,1091.04 660.216,1091.37 658.5,1091.5C 658.737,1092.79 658.404,1093.79 657.5,1094.5C 642.624,1059.71 629.79,1024.05 619,987.5C 617.003,979.181 615.17,970.848 613.5,962.5C 602,966.11 590.334,969.11 578.5,971.5C 577.722,969.775 577.389,968.109 577.5,966.5C 572.652,966.889 567.652,967.222 562.5,967.5C 578.753,964.911 594.753,960.911 610.5,955.5C 610.384,952.14 610.051,948.807 609.5,945.5C 609.643,943.738 609.309,942.071 608.5,940.5C 607.743,939.227 607.077,939.227 606.5,940.5C 600.109,943.24 593.442,945.074 586.5,946C 574.212,947.717 561.879,948.884 549.5,949.5C 550.868,955.405 551.868,961.405 552.5,967.5C 554.167,967.5 555.833,967.5 557.5,967.5C 558.952,968.302 560.618,968.802 562.5,969C 559.867,969.423 557.701,970.59 556,972.5C 555.692,971.692 555.192,971.025 554.5,970.5C 553.295,972.138 551.962,972.471 550.5,971.5C 549.452,973.813 548.785,975.813 548.5,977.5C 541.677,954.049 537.01,930.049 534.5,905.5C 534.283,901.295 533.617,897.295 532.5,893.5C 530.836,876.861 529.502,860.194 528.5,843.5C 528.5,840.167 528.5,836.833 528.5,833.5C 526.585,833.216 524.919,833.549 523.5,834.5C 511.697,836.214 500.03,838.547 488.5,841.5C 485.848,841.41 483.515,842.076 481.5,843.5C 476.881,844.658 472.215,845.158 467.5,845C 466.115,842.415 466.782,840.415 469.5,839C 487.68,834.334 506.013,830.5 524.5,827.5C 525.5,827.5 526.5,827.5 527.5,827.5C 527.5,812.833 527.5,798.167 527.5,783.5C 527.937,758.365 529.937,733.365 533.5,708.5C 535.011,705.456 535.678,702.122 535.5,698.5C 537.739,685.729 540.406,673.063 543.5,660.5C 545.074,658.898 545.741,656.898 545.5,654.5C 550.085,638.822 555.585,623.488 562,608.5C 567.687,595.766 574.854,584.099 583.5,573.5C 582.963,577.981 584.63,579.314 588.5,577.5C 583.847,583.462 579.68,589.796 576,596.5C 559.668,627.664 548.834,660.664 543.5,695.5C 564.949,693.814 585.949,696.147 606.5,702.5C 607.342,695.789 608.509,689.122 610,682.5C 619.025,645.149 630.858,608.816 645.5,573.5C 637.717,573.057 630.051,572.057 622.5,570.5C 623.832,569.17 624.665,567.503 625,565.5C 625.414,565.957 625.914,566.291 626.5,566.5C 628.444,565.811 630.444,565.311 632.5,565C 630.026,564.963 628.026,564.13 626.5,562.5C 629.33,562.613 632.164,562.613 635,562.5C 636.011,562.892 636.511,563.559 636.5,564.5C 637.192,563.975 637.692,563.308 638,562.5C 640.126,564.065 642.292,564.399 644.5,563.5C 647.032,564.668 649.365,565.335 651.5,565.5C 653.304,566.381 654.804,567.714 656,569.5C 656.492,568.451 656.326,567.451 655.5,566.5C 656.771,566.874 657.938,566.208 659,564.5C 659.198,562.618 659.698,560.952 660.5,559.5 Z"/></g>
<g><path style="opacity:1" fill="#8b0411" d="M 618.5,677.5 C 618.706,680.495 618.04,683.162 616.5,685.5C 616.565,682.572 617.232,679.905 618.5,677.5 Z"/></g>
<g><path style="opacity:1" fill="#f50017" d="M 557.5,716.5 C 551.977,715.289 546.31,715.289 540.5,716.5C 540.5,715.5 540.5,714.5 540.5,713.5C 540.287,709.484 540.954,705.65 542.5,702C 552.5,701.333 562.5,701.333 572.5,702C 580.488,703.657 588.488,705.323 596.5,707C 598.167,707.833 599.833,708.667 601.5,709.5C 602.395,714.474 602.395,719.474 601.5,724.5C 587.052,720.758 572.386,718.092 557.5,716.5 Z"/></g>
<g><path style="opacity:1" fill="#8d0310" d="M 535.5,698.5 C 535.678,702.122 535.011,705.456 533.5,708.5C 533.549,704.922 534.215,701.589 535.5,698.5 Z"/></g>
<g><path style="opacity:1" fill="#73040e" d="M 540.5,713.5 C 540.5,714.5 540.5,715.5 540.5,716.5C 546.31,715.289 551.977,715.289 557.5,716.5C 551.471,716.425 545.471,716.759 539.5,717.5C 539.232,715.901 539.566,714.568 540.5,713.5 Z"/></g>
<g><path style="opacity:1" fill="#383838" d="M 545.5,722.5 C 564.27,722.737 582.437,726.07 600,732.5C 593.759,788.508 594.092,844.508 601,900.5C 602.548,910.719 604.382,920.886 606.5,931C 604.726,933.393 602.393,935.059 599.5,936C 582.428,940.415 565.095,942.249 547.5,941.5C 533.813,871.017 530.646,800.017 538,728.5C 538.219,727.062 538.719,725.729 539.5,724.5C 541.657,723.95 543.657,723.283 545.5,722.5 Z"/></g>
<g><path style="opacity:1" fill="#b40313" d="M 610.5,717.5 C 610.246,724.407 609.246,731.074 607.5,737.5C 607.439,730.546 608.439,723.879 610.5,717.5 Z"/></g>
<g><path style="opacity:1" fill="#a30312" d="M 1528.5,753.5 C 1530.28,756.505 1531.28,759.838 1531.5,763.5C 1529.72,760.495 1528.72,757.162 1528.5,753.5 Z"/></g>
<g><path style="opacity:1" fill="#970412" d="M 955.5,762.5 C 955.59,765.152 954.924,767.485 953.5,769.5C 953.41,766.848 954.076,764.515 955.5,762.5 Z"/></g>
<g><path style="opacity:1" fill="#b10213" d="M 249.5,772.5 C 255.992,772.994 262.325,773.661 268.5,774.5C 266.5,774.5 264.5,774.5 262.5,774.5C 259.15,774.665 255.817,774.498 252.5,774C 251.263,773.768 250.263,773.268 249.5,772.5 Z"/></g>
<g><path style="opacity:1" fill="#65050e" d="M 340.5,773.5 C 324.86,774.982 309.026,775.648 293,775.5C 282.661,775.5 272.494,775.167 262.5,774.5C 264.5,774.5 266.5,774.5 268.5,774.5C 292.507,774.577 316.507,774.243 340.5,773.5 Z"/></g>
<g><path style="opacity:1" fill="#68040e" d="M 602.5,790.5 C 602.5,799.167 602.5,807.833 602.5,816.5C 605.833,816.5 609.167,816.5 612.5,816.5C 609.038,817.482 605.371,817.815 601.5,817.5C 601.173,808.318 601.507,799.318 602.5,790.5 Z"/></g>
<g><path style="opacity:1" fill="#63050e" d="M 767.5,813.5 C 728.828,813.359 690.161,813.693 651.5,814.5C 673.477,812.946 695.644,812.28 718,812.5C 734.67,812.5 751.17,812.833 767.5,813.5 Z"/></g>
<g><path style="opacity:1" fill="#8f0411" d="M 1539.5,800.5 C 1541.01,805.929 1541.68,811.596 1541.5,817.5C 1540.12,812.056 1539.45,806.389 1539.5,800.5 Z"/></g>
<g><path style="opacity:1" fill="#ac0212" d="M 527.5,783.5 C 527.5,798.167 527.5,812.833 527.5,827.5C 526.5,827.5 525.5,827.5 524.5,827.5C 526.133,812.9 527.133,798.233 527.5,783.5 Z"/></g>
<g><path style="opacity:1" fill="#920411" d="M 987.5,830.5 C 992.75,830.302 997.75,830.969 1002.5,832.5C 997.269,832.556 992.269,831.889 987.5,830.5 Z"/></g>
<g><path style="opacity:1" fill="#6c040e" d="M 523.5,834.5 C 524.919,833.549 526.585,833.216 528.5,833.5C 528.5,836.833 528.5,840.167 528.5,843.5C 527.523,840.713 527.19,837.713 527.5,834.5C 526.167,834.5 524.833,834.5 523.5,834.5 Z"/></g>
<g><path style="opacity:1" fill="#5f060e" d="M 971.5,835.5 C 976.434,835.229 981.1,835.896 985.5,837.5C 980.63,837.31 975.964,836.644 971.5,835.5 Z"/></g>
<g><path style="opacity:1" fill="#a30312" d="M 1511.5,823.5 C 1513.04,831.441 1513.7,839.608 1513.5,848C 1513.33,853.833 1513.17,859.667 1513,865.5C 1512.92,869.796 1512.09,873.796 1510.5,877.5C 1512.71,859.541 1513.04,841.541 1511.5,823.5 Z"/></g>
<g><path style="opacity:1" fill="#c90114" d="M 949.5,833.5 C 947.167,833.5 944.833,833.5 942.5,833.5C 942.531,844.844 942.864,856.178 943.5,867.5C 941.812,856.045 941.145,844.378 941.5,832.5C 944.385,832.194 947.052,832.527 949.5,833.5 Z"/></g>
<g><path style="opacity:1" fill="#9f0311" d="M 488.5,841.5 C 486.485,842.924 484.152,843.59 481.5,843.5C 483.515,842.076 485.848,841.41 488.5,841.5 Z"/></g>
<g><path style="opacity:1" fill="#020101" d="M 1387.5,1041.5 C 1352.04,1059.45 1314.37,1069.45 1274.5,1071.5C 1259.84,1071.99 1245.17,1072.33 1230.5,1072.5C 1211.05,1072.09 1192.05,1069.42 1173.5,1064.5C 1170.07,1062.46 1168.41,1059.62 1168.5,1056C 1165.86,1054.98 1163.2,1054.14 1160.5,1053.5C 1158.5,1052.83 1156.5,1052.17 1154.5,1051.5C 1150.3,1050.22 1146.3,1048.55 1142.5,1046.5C 1115.8,1034.45 1092.13,1018.12 1071.5,997.5C 1126.5,946.33 1182,895.664 1238,845.5C 1288.05,910.71 1337.88,976.043 1387.5,1041.5 Z"/></g>
<g><path style="opacity:1" fill="#bb0214" d="M 319.5,882.5 C 314.75,884.031 309.75,884.698 304.5,884.5C 309.269,883.111 314.269,882.444 319.5,882.5 Z"/></g>
<g><path style="opacity:1" fill="#ab0312" d="M 294.5,885.5 C 290.081,886.972 285.414,887.638 280.5,887.5C 284.919,886.028 289.586,885.362 294.5,885.5 Z"/></g>
<g><path style="opacity:1" fill="#890411" d="M 938.5,885.5 C 939.924,887.515 940.59,889.848 940.5,892.5C 939.076,890.485 938.41,888.152 938.5,885.5 Z"/></g>
<g><path style="opacity:1" fill="#bb0314" d="M 266.5,890.5 C 262.498,892.61 258.165,893.943 253.5,894.5C 257.502,892.39 261.835,891.057 266.5,890.5 Z"/></g>
<g><path style="opacity:1" fill="#69050e" d="M 1537.5,888.5 C 1537.59,891.152 1536.92,893.485 1535.5,895.5C 1535.41,892.848 1536.08,890.515 1537.5,888.5 Z"/></g>
<g><path style="opacity:1" fill="#5c070e" d="M 606.5,889.5 C 607.889,894.269 608.556,899.269 608.5,904.5C 607.111,899.731 606.444,894.731 606.5,889.5 Z"/></g>
<g><path style="opacity:1" fill="#920411" d="M 532.5,893.5 C 533.617,897.295 534.283,901.295 534.5,905.5C 532.864,901.79 532.198,897.79 532.5,893.5 Z"/></g>
<g><path style="opacity:1" fill="#74040f" d="M 798.5,899.5 C 795.373,900.581 792.04,901.247 788.5,901.5C 791.507,899.825 794.84,899.159 798.5,899.5 Z"/></g>
<g><path style="opacity:1" fill="#a00312" d="M 942.5,902.5 C 944.277,905.505 945.277,908.838 945.5,912.5C 943.723,909.495 942.723,906.162 942.5,902.5 Z"/></g>
<g><path style="opacity:1" fill="#130806" d="M 997.5,924.5 C 997.721,927.067 998.388,929.401 999.5,931.5C 1005.38,949.933 1014.88,966.266 1028,980.5C 1060.35,1012.77 1098.52,1035.43 1142.5,1048.5C 1145.8,1050.6 1149.46,1051.93 1153.5,1052.5C 1155.71,1054.31 1158.05,1054.65 1160.5,1053.5C 1163.2,1054.14 1165.86,1054.98 1168.5,1056C 1168.41,1059.62 1170.07,1062.46 1173.5,1064.5C 1153.93,1060.62 1134.93,1054.78 1116.5,1047C 1078.78,1031.56 1045.95,1009.06 1018,979.5C 1008.43,967.688 1000.93,954.688 995.5,940.5C 994.871,937.603 993.871,934.936 992.5,932.5C 990.815,925.917 989.982,919.25 990,912.5C 992.267,911.065 994.267,911.398 996,913.5C 997.237,917.06 997.737,920.727 997.5,924.5 Z"/></g>
<g><path style="opacity:1" fill="#8f0311" d="M 997.5,924.5 C 999.163,926.438 999.829,928.772 999.5,931.5C 998.388,929.401 997.721,927.067 997.5,924.5 Z"/></g>
<g><path style="opacity:1" fill="#980411" d="M 992.5,932.5 C 993.871,934.936 994.871,937.603 995.5,940.5C 993.345,938.383 992.345,935.716 992.5,932.5 Z"/></g>
<g><path style="opacity:1" fill="#f60017" d="M 606.5,940.5 C 607.687,942.072 608.687,943.739 609.5,945.5C 610.051,948.807 610.384,952.14 610.5,955.5C 594.753,960.911 578.753,964.911 562.5,967.5C 560.833,967.5 559.167,967.5 557.5,967.5C 555.833,967.5 554.167,967.5 552.5,967.5C 551.868,961.405 550.868,955.405 549.5,949.5C 561.879,948.884 574.212,947.717 586.5,946C 593.442,945.074 600.109,943.24 606.5,940.5 Z"/></g>
<g><path style="opacity:1" fill="#63050e" d="M 606.5,940.5 C 607.077,939.227 607.743,939.227 608.5,940.5C 609.309,942.071 609.643,943.738 609.5,945.5C 608.687,943.739 607.687,942.072 606.5,940.5 Z"/></g>
<g><path style="opacity:1" fill="#383838" d="M 657.5,1094.5 C 638.827,1097.07 620.161,1099.74 601.5,1102.5C 600.833,1102.17 600.167,1101.83 599.5,1101.5C 579.397,1061.01 564.397,1018.68 554.5,974.5C 562.597,974.157 570.597,973.157 578.5,971.5C 590.334,969.11 602,966.11 613.5,962.5C 615.17,970.848 617.003,979.181 619,987.5C 629.79,1024.05 642.624,1059.71 657.5,1094.5 Z"/></g>
<g><path style="opacity:1" fill="#140806" d="M 798.5,899.5 C 808.839,899.334 819.172,899.5 829.5,900C 830,900.5 830.5,901 831,901.5C 831.223,922.85 831.889,944.183 833,965.5C 835.184,974.737 836.184,984.071 836,993.5C 831.792,996.22 827.292,998.22 822.5,999.5C 816.203,1000.32 809.869,1000.65 803.5,1000.5C 799.087,1000.15 794.754,999.314 790.5,998C 789.274,996.365 787.941,994.865 786.5,993.5C 775.7,999.037 764.367,1000.7 752.5,998.5C 750.485,997.076 748.152,996.41 745.5,996.5C 739.293,995.807 734.459,992.807 731,987.5C 725.58,980.333 720.913,972.667 717,964.5C 711.236,945.258 714.236,927.592 726,911.5C 727.214,909.951 728.714,908.785 730.5,908C 746.771,903.742 763.271,902.575 780,904.5C 782.907,903.774 785.74,902.774 788.5,901.5C 792.04,901.247 795.373,900.581 798.5,899.5 Z"/></g>
<g><path style="opacity:1" fill="#960412" d="M 826.5,967.5 C 827.889,972.269 828.556,977.269 828.5,982.5C 826.969,977.75 826.302,972.75 826.5,967.5 Z"/></g>
<g><path style="opacity:1" fill="#8f0411" d="M 777.5,967.5 C 778.871,969.936 779.871,972.603 780.5,975.5C 778.345,973.383 777.345,970.716 777.5,967.5 Z"/></g>
<g><path style="opacity:1" fill="#fa0017" d="M 778.5,911.5 C 773.548,930.065 773.215,948.732 777.5,967.5C 777.345,970.716 778.345,973.383 780.5,975.5C 781.534,979.243 782.868,982.91 784.5,986.5C 770.234,993.934 755.567,994.434 740.5,988C 726.731,974.359 720.231,957.859 721,938.5C 722.862,930.108 726.362,922.441 731.5,915.5C 735.009,913.885 738.675,912.885 742.5,912.5C 754.482,911.691 766.482,911.358 778.5,911.5 Z"/></g>
<g><path style="opacity:1" fill="#a90212" d="M 778.5,911.5 C 766.482,911.358 754.482,911.691 742.5,912.5C 749.264,910.965 756.264,910.298 763.5,910.5C 768.678,910.501 773.678,910.834 778.5,911.5 Z"/></g>
<g><path style="opacity:1" fill="#f90017" d="M 826.5,967.5 C 826.302,972.75 826.969,977.75 828.5,982.5C 830.787,987.286 829.454,990.453 824.5,992C 816.81,994.48 809.143,994.98 801.5,993.5C 799.485,992.076 797.152,991.41 794.5,991.5C 781.001,966.825 777.835,940.825 785,913.5C 785.774,911.061 787.274,909.227 789.5,908C 801.04,905.735 812.707,904.902 824.5,905.5C 824.152,926.207 824.818,946.874 826.5,967.5 Z"/></g>
<g><path style="opacity:1" fill="#52090d" d="M 625.5,984.5 C 626.924,986.515 627.59,988.848 627.5,991.5C 626.076,989.485 625.41,987.152 625.5,984.5 Z"/></g>
<g><path style="opacity:1" fill="#a00312" d="M 794.5,991.5 C 797.152,991.41 799.485,992.076 801.5,993.5C 798.848,993.59 796.515,992.924 794.5,991.5 Z"/></g>
<g><path style="opacity:1" fill="#59080d" d="M 745.5,996.5 C 748.152,996.41 750.485,997.076 752.5,998.5C 749.848,998.59 747.515,997.924 745.5,996.5 Z"/></g>
<g><path style="opacity:1" fill="#a90312" d="M 822.5,999.5 C 822.082,1000.22 821.416,1000.72 820.5,1001C 814.651,1001.82 808.985,1001.65 803.5,1000.5C 809.869,1000.65 816.203,1000.32 822.5,999.5 Z"/></g>
<g><path style="opacity:1" fill="#a50312" d="M 556.5,1011.5 C 558.277,1014.5 559.277,1017.84 559.5,1021.5C 557.723,1018.5 556.723,1015.16 556.5,1011.5 Z"/></g>
<g><path style="opacity:1" fill="#b80213" d="M 1142.5,1046.5 C 1146.3,1048.55 1150.3,1050.22 1154.5,1051.5C 1154.5,1052.17 1154.17,1052.5 1153.5,1052.5C 1149.46,1051.93 1145.8,1050.6 1142.5,1048.5C 1143.51,1048.06 1143.51,1047.4 1142.5,1046.5 Z"/></g>
<g><path style="opacity:1" fill="#5c040c" d="M 1154.5,1051.5 C 1156.5,1052.17 1158.5,1052.83 1160.5,1053.5C 1158.05,1054.65 1155.71,1054.31 1153.5,1052.5C 1154.17,1052.5 1154.5,1052.17 1154.5,1051.5 Z"/></g>
<g><path style="opacity:1" fill="#8f0210" d="M 1274.5,1071.5 C 1259.86,1073.37 1245.19,1073.7 1230.5,1072.5C 1245.17,1072.33 1259.84,1071.99 1274.5,1071.5 Z"/></g>
<g><path style="opacity:1" fill="#120706" d="M 676.5,1095.5 C 677.242,1093.57 678.242,1091.74 679.5,1090C 676.254,1090.32 672.92,1090.48 669.5,1090.5C 672.273,1089.34 675.273,1088.68 678.5,1088.5C 681.495,1088.71 684.162,1088.04 686.5,1086.5C 747.304,1073.73 806.304,1055.23 863.5,1031C 868.656,1029.49 870.323,1031.15 868.5,1036C 806.684,1062.67 742.684,1082.5 676.5,1095.5 Z"/></g>
<g><path style="opacity:1" fill="#5e050e" d="M 686.5,1086.5 C 684.162,1088.04 681.495,1088.71 678.5,1088.5C 680.905,1087.23 683.572,1086.57 686.5,1086.5 Z"/></g>
<g><path style="opacity:1" fill="#a60312" d="M 664.5,1100.5 C 657.749,1102.32 650.749,1103.32 643.5,1103.5C 650.251,1101.68 657.251,1100.68 664.5,1100.5 Z"/></g>
<g><path style="opacity:1" fill="#4e0a0d" d="M 595.5,1108.5 C 596.043,1108.56 596.376,1108.89 596.5,1109.5C 594.257,1110.47 591.924,1110.81 589.5,1110.5C 591.5,1109.83 593.5,1109.17 595.5,1108.5 Z"/></g>
<g><path style="opacity:1" fill="#010101" d="M 642.5,1146.5 C 643.298,1151.72 641.964,1156.22 638.5,1160C 639.167,1162 640.5,1163.33 642.5,1164C 641.833,1164.33 641.167,1164.67 640.5,1165C 641.833,1165.67 641.833,1166.33 640.5,1167C 641.126,1167.75 641.626,1168.58 642,1169.5C 642.893,1168.29 643.726,1168.29 644.5,1169.5C 644.39,1171.1 644.057,1172.76 643.5,1174.5C 644.262,1174.91 645.262,1175.08 646.5,1175C 645.655,1176.56 646.321,1177.56 648.5,1178C 645.828,1180.68 646.162,1183.01 649.5,1185C 648.584,1185.37 647.75,1185.87 647,1186.5C 644.908,1185.36 642.741,1185.36 640.5,1186.5C 640.167,1185.83 639.833,1185.17 639.5,1184.5C 638.029,1185.38 637.196,1186.71 637,1188.5C 636.945,1186.11 635.778,1184.78 633.5,1184.5C 628.938,1183.62 624.605,1183.62 620.5,1184.5C 619.808,1183.97 619.308,1183.31 619,1182.5C 617.417,1182.49 615.751,1182.83 614,1183.5C 611.742,1180.97 609.575,1180.63 607.5,1182.5C 598.968,1181.09 590.635,1178.43 582.5,1174.5C 580.737,1174.31 578.903,1174.31 577,1174.5C 576.692,1173.69 576.192,1173.03 575.5,1172.5C 570.628,1169.93 565.794,1168.27 561,1167.5C 559.757,1165.17 558.091,1164.5 556,1165.5C 553.315,1161.74 549.815,1160.07 545.5,1160.5C 544.289,1159.73 544.289,1158.89 545.5,1158C 532.473,1150.23 521.307,1141.07 512,1130.5C 510.655,1128.38 510.155,1126.38 510.5,1124.5C 511.584,1125.67 512.417,1127 513,1128.5C 514.434,1126.86 516.267,1125.86 518.5,1125.5C 522.686,1126.85 526.519,1126.19 530,1123.5C 532.868,1125.43 535.535,1125.43 538,1123.5C 539.398,1124.05 540.732,1124.38 542,1124.5C 542.667,1123.83 543.333,1123.17 544,1122.5C 545.667,1122.83 547.333,1123.17 549,1123.5C 550.439,1121.99 551.939,1121.65 553.5,1122.5C 557.764,1121.82 561.931,1120.82 566,1119.5C 567.398,1120.05 568.732,1120.38 570,1120.5C 571.333,1119.83 572.667,1119.17 574,1118.5C 576.935,1118.39 579.935,1118.39 583,1118.5C 583.667,1117.83 584.333,1117.17 585,1116.5C 586.398,1117.05 587.732,1117.38 589,1117.5C 593.167,1116.96 597.167,1115.96 601,1114.5C 603.414,1115.43 605.914,1115.26 608.5,1114C 607.5,1113.67 606.5,1113.33 605.5,1113C 607.433,1112.22 608.933,1112.72 610,1114.5C 611.567,1112.83 613.234,1112.5 615,1113.5C 616.763,1113.02 618.43,1112.36 620,1111.5C 622.159,1112.2 624.326,1111.86 626.5,1110.5C 628.16,1111.07 629.994,1111.07 632,1110.5C 634.105,1110.79 635.938,1111.62 637.5,1113C 635.519,1113.61 635.185,1114.61 636.5,1116C 635.106,1116.96 634.439,1118.29 634.5,1120C 635.619,1124.11 635.619,1128.27 634.5,1132.5C 638.361,1133.6 638.361,1134.43 634.5,1135C 637.167,1135.67 637.167,1136.33 634.5,1137C 635.274,1139.41 635.774,1141.91 636,1144.5C 637.676,1145.06 639.009,1146.06 640,1147.5C 640.671,1146.75 641.504,1146.41 642.5,1146.5 Z"/></g>
<g><path style="opacity:1" fill="#a10312" d="M 306.5,1118.5 C 309.152,1118.41 311.485,1119.08 313.5,1120.5C 310.848,1120.59 308.515,1119.92 306.5,1118.5 Z"/></g>
<g><path style="opacity:1" fill="#b00313" d="M 329.5,1123.5 C 334.731,1123.44 339.731,1124.11 344.5,1125.5C 339.25,1125.7 334.25,1125.03 329.5,1123.5 Z"/></g>
<g><path style="opacity:1" fill="#980412" d="M 1076.5,1128.5 C 1080.16,1128.72 1083.5,1129.72 1086.5,1131.5C 1082.84,1131.28 1079.5,1130.28 1076.5,1128.5 Z"/></g>
<g><path style="opacity:1" fill="#b40313" d="M 1087.5,1131.5 C 1092.16,1132.06 1096.5,1133.39 1100.5,1135.5C 1095.84,1134.94 1091.5,1133.61 1087.5,1131.5 Z"/></g>
<g><path style="opacity:1" fill="#a30312" d="M 1118.5,1139.5 C 1122.49,1139.12 1126.16,1139.78 1129.5,1141.5C 1125.64,1141.19 1121.97,1140.52 1118.5,1139.5 Z"/></g>
<g><path style="opacity:1" fill="#2a0d08" d="M 1257.5,1139.5 C 1254.13,1141.06 1250.47,1141.89 1246.5,1142C 1244.67,1142.5 1243.5,1143.67 1243,1145.5C 1241.87,1144.06 1240.37,1143.39 1238.5,1143.5C 1235.2,1144.21 1231.87,1144.54 1228.5,1144.5C 1238.08,1142.9 1247.74,1141.24 1257.5,1139.5 Z"/></g>
<g><path style="opacity:1" fill="#9d0311" d="M 1138.5,1142.5 C 1143.75,1142.3 1148.75,1142.97 1153.5,1144.5C 1148.27,1144.56 1143.27,1143.89 1138.5,1142.5 Z"/></g>
</svg>
