<?xml version="1.0" encoding="UTF-8" standalone="no"?>
<!DOCTYPE svg PUBLIC "-//W3C//DTD SVG 1.1//EN" "http://www.w3.org/Graphics/SVG/1.1/DTD/svg11.dtd">
<svg width="100%" height="100%" viewBox="0 0 2048 2048" version="1.1" xmlns="http://www.w3.org/2000/svg" xmlns:xlink="http://www.w3.org/1999/xlink" xml:space="preserve" xmlns:serif="http://www.serif.com/" style="fill-rule:evenodd;clip-rule:evenodd;stroke-linecap:round;stroke-linejoin:round;stroke-miterlimit:1.5;">
    <path d="M1032.28,185.734C1340.49,213.208 1486.77,621.272 1307.22,861.554C1448.92,1059.38 1488.58,1340.85 1357.41,1438.64C1367.62,1550.68 1373.03,1644.66 1333.74,1734.53C1246.93,1845.05 1139.4,1826.54 1082.8,1756.79C1066.27,1743.21 1058.48,1676.44 1055.13,1582.68C1033.91,1480.24 902.24,1506.09 933.212,1588.01C939.844,1666.03 939.134,1707.07 937.136,1741.62C906.576,1855.96 816.264,1864.83 736.305,1783.87C684.661,1718.64 670.656,1572.63 671.534,1394.69C491.015,1241.48 605.806,1011.67 777.024,816.636C583.247,489.391 743.006,171.008 1032.28,185.734Z" style="fill:rgb(255,3,37);stroke:rgb(6,6,6);stroke-width:8.33px;"/>
    <path d="M1245.74,1003.42C1284.86,1094.04 1306.34,1177.15 1319.47,1248.29" style="fill:none;stroke:rgb(6,6,6);stroke-width:8.33px;"/>
    <path d="M1102.58,851.029C1213.11,843.305 1296.66,661.73 1288.68,536.114" style="fill:none;stroke:rgb(6,6,6);stroke-width:8.33px;"/>
    <path d="M1308.8,859.196C1293.39,885.56 1273.31,904.878 1253.14,922.132" style="fill:none;stroke:rgb(6,6,6);stroke-width:8.33px;"/>
    <path d="M777.954,817.719C808.297,855.576 838.57,887.59 867.791,908.333" style="fill:none;stroke:rgb(6,6,6);stroke-width:8.33px;"/>
    <path d="M918.33,900.261C988.438,924.616 1062.98,925.299 1145.17,885.975" style="fill:none;stroke:rgb(6,6,6);stroke-width:8.33px;"/>
    <path d="M580.24,1217.42C611.379,1242.2 645.692,1256.69 684.852,1255.47L672.217,1390.43C613.087,1348.23 584.932,1289.2 580.24,1217.42Z" style="stroke:rgb(6,6,6);stroke-width:8.33px;"/>
    <path d="M1008.81,829.888C973.397,1105.5 976.031,1331.36 1015.7,1480.92" style="fill:none;stroke:rgb(6,6,6);stroke-width:8.33px;"/>
    <path d="M936.932,859.196C817.411,822.473 733.577,713.949 756.831,512.656" style="fill:none;stroke:rgb(6,6,6);stroke-width:8.33px;"/>
    <path d="M687.98,1262.89L680.988,1331.41C797.098,1436.22 1131.09,1433.05 1333.39,1326.96L1322.33,1248.29C1104.72,1347.73 888.578,1351.59 687.98,1262.89Z" style="fill:rgb(57,57,57);stroke:rgb(6,6,6);stroke-width:8.33px;"/>
    <path d="M1124.6,1312.4L1154.24,1306.64C1159.76,1322.95 1169.36,1349.61 1170.78,1384.48L1141.23,1390.43C1137.66,1356.21 1138,1323.38 1124.6,1312.4Z" style="fill:rgb(0,204,0);stroke:rgb(6,6,6);stroke-width:8.33px;"/>
    <path d="M852.35,1316.58L879.886,1319.17C865.509,1362.27 864.975,1391.26 870.599,1401.86L843.372,1398.3C838.635,1372.95 842.9,1343.01 852.35,1316.58Z" style="fill:rgb(0,204,0);stroke:rgb(6,6,6);stroke-width:8.33px;"/>
    <path d="M1088.57,1049.17C1123.57,1051.51 1158.95,1050.39 1195.05,1042.97C1204.21,1059.4 1204.45,1076.46 1198.45,1093.98C1157.82,1113.71 1123.56,1115.71 1094.59,1103.01C1087.39,1096.65 1087.01,1075.06 1088.57,1049.17Z" style="fill:none;stroke:rgb(6,6,6);stroke-width:8.33px;"/>
    <path d="M1094.59,1103.01C1092.19,1126.66 1093.15,1149.95 1099.49,1168.18C1129.12,1189.66 1159.89,1190.06 1194.23,1157.56C1204.52,1128.63 1201.99,1118.88 1192.17,1096.94" style="fill:none;stroke:rgb(6,6,6);stroke-width:8.33px;"/>
    <path d="M756.831,1003.26C716.148,1118.36 695.873,1140.17 690.209,1260.74" style="fill:none;stroke:rgb(6,6,6);stroke-width:8.33px;"/>
    <g transform="matrix(1.13294,0,0,1.55104,-171.313,-290.253)">
        <ellipse cx="1053.96" cy="528.612" rx="234.723" ry="193.576" style="stroke:rgb(6,6,6);stroke-width:6.14px;"/>
    </g>
    <path d="M1433.14,1259.54C1399.63,1277.21 1369.21,1282.16 1333.39,1277.9C1342.17,1332.59 1349.87,1386.63 1356.87,1440.24C1405.82,1400.64 1429.88,1343.02 1433.14,1259.54Z" style="stroke:rgb(6,6,6);stroke-width:8.33px;"/>
    <g transform="matrix(0.90671,0,0,1.17121,185.529,-388.625)">
        <ellipse cx="924.74" cy="687.408" rx="99.26" ry="76.844" style="fill:none;stroke:white;stroke-width:19.89px;"/>
    </g>
</svg>
